HIERARCHY
ROOT ui
{
	 OFFSET 0 0 0
	 CHANNELS 3 XPosition YPosition Z Position
	 EndSite
	 {
	 OFFSET 0 -1 0
	 }
}
ROOT li
{
	 OFFSET 0 0 0
	 CHANNELS 3 XPosition YPosition Z Position
	 EndSite
	 {
	 OFFSET 0 -1 0
	 }
}
ROOT ul
{
	 OFFSET 0 0 0
	 CHANNELS 3 XPosition YPosition Z Position
	 EndSite
	 {
	 OFFSET 0 -1 0
	 }
}
ROOT ll
{
	 OFFSET 0 0 0
	 CHANNELS 3 XPosition YPosition Z Position
	 EndSite
	 {
	 OFFSET 0 -1 0
	 }
}
ROOT tt
{
	 OFFSET 0 0 0
	 CHANNELS 3 XPosition YPosition Z Position
	 EndSite
	 {
	 OFFSET 0 -1 0
	 }
}
ROOT tb
{
	 OFFSET 0 0 0
	 CHANNELS 3 XPosition YPosition Z Position
	 EndSite
	 {
	 OFFSET 0 -1 0
	 }
}
ROOT td
{
	 OFFSET 0 0 0
	 CHANNELS 3 XPosition YPosition Z Position
	 EndSite
	 {
	 OFFSET 0 -1 0
	 }
}
ROOT v
{
	 OFFSET 0 0 0
	 CHANNELS 3 XPosition YPosition Z Position
	 EndSite
	 {
	 OFFSET 0 -1 0
	 }
}
ROOT bn
{
	 OFFSET 0 0 0
	 CHANNELS 3 XPosition YPosition Z Position
	 EndSite
	 {
	 OFFSET 0 -1 0
	 }
}
MOTION
Frames: 16
Frame Time: 0.002
0.005154356956481933	5.0234001129865645E-5	0		0.465246337890625	-2.27572412109375	0		-1.0660780029296875	-0.005548917770385743	0		-0.705460205078125	-2.3097109375	0		1.5863260498046876	-0.4947003173828125	0		3.19517041015625	0.09824311065673828	0		4.6340927734375	0.20488267517089845	0		5.60903125	0.13465939331054688	0		-0.3004702453613281	5.8737900390625	0		
-0.01533232021331787	-0.0046964211463928224	0		0.4138390197753906	-2.26699462890625	0		-1.066486083984375	-0.005557960033416748	0		-0.741953125	-2.306155029296875	0		1.60486962890625	-0.49617840576171873	0		3.1947685546875	0.09797801971435546	0		4.64779296875	0.21030206298828125	0		5.6180849609375	0.145701416015625	0		-0.28636395263671877	5.88350537109375	0		
0.00438440990447998	-9.792699664831162E-5	0		0.44134054565429687	-2.267551513671875	0		-1.062800048828125	-0.002635910987854004	0		-0.7404176635742188	-2.30421923828125	0		1.5916112060546874	-0.4881350708007812	0		3.189543701171875	0.10579743957519532	0		4.6374443359375	0.210119384765625	0		5.61362255859375	0.15729159545898438	0		-0.272203857421875	5.894216796875	0		
-0.017882173538208007	0.0031874001026153563	0		0.41901239013671876	-2.260291259765625	0		-1.0590538330078125	0.0012822660207748413	0		-0.7388331909179687	-2.302285888671875	0		1.6102459716796875	-0.4896114501953125	0		3.21317822265625	0.10214956665039063	0		4.64713623046875	0.2096197204589844	0		5.6175859375	0.14434674072265624	0		-0.2863706359863281	5.88338818359375	0		
0.02976889419555664	-0.00167705500125885	0		0.4674443054199219	-2.2711943359375	0		-1.063395751953125	-0.002670353889465332	0		-0.7432974853515625	-2.306255615234375	0		1.5909622802734376	-0.48845941162109374	0		3.21700537109375	0.10783698272705078	0		4.6327734375	0.20352912902832032	0		5.61738232421875	0.14370892333984375	0		-0.30049777221679685	5.87356005859375	0		
-0.01839430618286133	0.0030392179489135743	0		0.4381000671386719	-2.270813232421875	0		-1.0676806640625	-0.005625953197479248	0		-0.6717398681640625	-2.312482421875	0		1.6035684814453126	-0.49682662963867186	0		3.18872900390625	0.10506596374511719	0		4.64254638671875	0.20305978393554688	0		5.610111328125	0.14858139038085938	0		-0.2872462158203125	5.8852841796875	0		
0.020370456695556642	3.203290104866028E-4	0		0.43780007934570314	-2.270906982421875	0		-1.0678778076171875	-0.0056513619422912595	0		-0.7439490356445313	-2.306333740234375	0		1.5843681640625	-0.4956586608886719	0		3.188536865234375	0.1048473129272461	0		4.636458984375	0.20887370300292968	0		5.6106435546875	0.14280242919921876	0		-0.28325930786132814	5.88015771484375	0		
-0.018751865386962892	0.0028939549922943116	0		0.41363287353515626	-2.265599853515625	0		-1.06398974609375	-0.002747626066207886	0		-0.7292725219726562	-2.310624755859375	0		1.590302490234375	-0.48889688110351565	0		3.23729052734375	0.09883118438720703	0		4.65427099609375	0.20631295776367187	0		5.6228134765625	0.16601513671875	0		-0.2690162353515625	5.8898623046875	0		
0.012032601356506347	-0.0026929969787597655	0		0.44345281982421875	-2.264186767578125	0		-1.0600518798828125	0.0011509569883346557	0		-0.7362659912109375	-2.297556396484375	0		1.5932230224609376	-0.4850766296386719	0		3.19543798828125	0.11533980560302734	0		4.6461845703125	0.20820692443847658	0		5.61562158203125	0.17102462768554688	0		-0.27186663818359375	5.89384912109375	0		
-0.018977956771850588	0.0027505879402160644	0		0.44125244140625	-2.26623876953125	0		-1.0642161865234374	-0.0028216710090637207	0		-0.7045554809570312	-2.305138916015625	0		1.6090244140625	-0.490463623046875	0		3.19302685546875	0.09620595550537109	0		4.6419931640625	0.202060302734375	0		5.61677294921875	0.14114422607421875	0		-0.2717847900390625	5.89378515625	0		
0.008814362525939942	-0.0057880678176879885	0		0.4370421142578125	-2.271255126953125	0		-1.0683360595703124	-0.005800292015075683	0		-0.744711669921875	-2.306525390625	0		1.5730469970703125	-0.4839765014648437	0		3.192958984375	0.09605279541015625	0		4.64192822265625	0.20187062072753906	0		5.61378369140625	0.1287847900390625	0		-0.30005325317382814	5.873189453125	0		
0.002855007886886597	-7.619860172271729E-4	0		0.4369532775878906	-2.271337158203125	0		-1.0683798828125	-0.005852416038513184	0		-0.6728948364257813	-2.312787109375	0		1.58379150390625	-0.4962633666992188	0		3.192917236328125	0.09591596221923829	0		4.63189013671875	0.20187217712402344	0		5.61249072265625	0.1527425079345703	0		-0.28581494140625	5.88288671875	0		
-0.002079041004180908	0.0042470040321350095	0		0.41298886108398436	-2.2660166015625	0		-1.0643486328125	-0.0029781689643859862	0		-0.7319553833007812	-2.31286376953125	0		1.586815673828125	-0.4934109802246094	0		3.192117919921875	0.10881050109863281	0		4.64907275390625	0.21344471740722656	0		5.619607421875	0.1521862335205078	0		-0.28574777221679687	5.88281689453125	0		
0.011806808471679687	-0.0030606238842010498	0		0.44096908569335935	-2.2665634765625	0		-1.06434375	-0.003042607069015503	0		-0.6688967895507812	-2.30898681640625	0		1.59294921875	-0.48560137939453124	0		3.197006103515625	0.10162418365478515	0		4.64597998046875	0.20737879943847656	0		5.61960986328125	0.1519698486328125	0		-0.2856886901855469	5.88274560546875	0		
-0.023994701385498047	0.007466402053833008	0		0.4389532165527344	-2.268605712890625	0		-1.0643177490234375	-0.0031129560470581053	0		-0.7407857666015625	-2.302853515625	0		1.5868402099609376	-0.4935802612304688	0		3.216113525390625	0.10621867370605469	0		4.64190673828125	0.20135447692871095	0		5.61669140625	0.13981216430664062	0		-0.29980575561523437	5.87290771484375	0		
0.0029125969409942625	-0.0010595489740371704	0		0.46594793701171877	-2.272131591796875	0		-1.0683223876953125	-0.006122196197509765	0		-0.672897216796875	-2.313067138671875	0		1.60281689453125	-0.49791995239257814	0		3.188112060546875	0.10361827087402344	0		4.641951171875	0.201287109375	0		5.61030517578125	0.13995883178710938	0		-0.2865711059570312	5.88461328125	0		
